<svg xmlns="http://www.w3.org/2000/svg" viewBox="0 0 225.62 53.72"><defs><style>.cls-1{fill:#ffdc73;}</style></defs><title>border-bottom</title><g id="Layer_2" data-name="Layer 2"><g id="OBJECTS"><g id="_Group_" data-name="&lt;Group&gt;"><path id="_Path_" data-name="&lt;Path&gt;" class="cls-1" d="M224.88,1.47H.73A.73.73,0,0,1,.73,0H224.88a.73.73,0,1,1,0,1.47Z"/></g><g id="_Group_2" data-name="&lt;Group&gt;"><path id="_Path_2" data-name="&lt;Path&gt;" class="cls-1" d="M113.5,18.63s8,12.52,8,17.55-8,17.55-8,17.55-8-12.52-8-17.55S113.5,18.63,113.5,18.63Z"/></g><g id="_Group_3" data-name="&lt;Group&gt;"><circle id="_Path_3" data-name="&lt;Path&gt;" class="cls-1" cx="113.5" cy="9.47" r="3.19"/></g><g id="_Group_4" data-name="&lt;Group&gt;"><g id="_Group_5" data-name="&lt;Group&gt;"><path id="_Path_4" data-name="&lt;Path&gt;" class="cls-1" d="M76.44,17.6c.27,8.69-13.31,9.6-13.31.9S83.23,2.48,98.1,6c14.6,3.49,7,18.38,1.64,22.17C93,33,82.68,28.82,88.8,18c3.58-6.35,12.23,0,8.76,2.92-4.38,3.65-8.39,8.67-3.42,8.35,4.22-.27,8.8-5.75,10-12,1.16-6.08-3.65-8.79-10.77-9.79s-22.9,1.61-27.64,7.27S67.4,24.29,69,23.28s.78-7.36,3.79-8.3C75.53,14.14,76.39,16.12,76.44,17.6Z"/></g><g id="_Group_6" data-name="&lt;Group&gt;"><path id="_Path_5" data-name="&lt;Path&gt;" class="cls-1" d="M97.74,10.57c.36-1-6.09-2.23-10.58-1.92-5.78.41-11.77,2.26-12.13,2.83-.64,1,5.22-.71,12.32-1.28C92.63,9.77,97.34,11.72,97.74,10.57Z"/></g><g id="_Group_7" data-name="&lt;Group&gt;"><path id="_Path_6" data-name="&lt;Path&gt;" class="cls-1" d="M56.26,7.38c8.72.91,6.33,16.18-1.95,16.18S33.18,5.93,29,10.18s1,6.13,1.7,6.45,0,1.71-1.23,1-4.09-3.11-3.13-6,3.81-5.11,8.83-2c4.59,2.83,13.49,10.53,15.66,11.6,1.81.9,5.55,1.58,7.24-1.47S60,13,58.73,12c-3-2.42-3.67,1.42-4.23,4-1.19,5.43-6.61,2.14-6.25-1.92C48.47,11.61,51.18,6.85,56.26,7.38Z"/></g><g id="_Group_8" data-name="&lt;Group&gt;"><path id="_Path_7" data-name="&lt;Path&gt;" class="cls-1" d="M62.45,21.95C62,28.5,67.7,33.5,70.26,32.53c2.16-.82,2.11-3.48-1.1-4.73C63.63,25.65,62.93,23.88,62.45,21.95Z"/></g><g id="_Group_9" data-name="&lt;Group&gt;"><path id="_Path_8" data-name="&lt;Path&gt;" class="cls-1" d="M61,22.35c-.6,8.42-11.59,13-15.81,11-3.55-1.68-2.88-5,2.94-5.64C58.2,26.68,59.78,24.65,61,22.35Z"/></g><g id="_Group_10" data-name="&lt;Group&gt;"><path id="_Path_9" data-name="&lt;Path&gt;" class="cls-1" d="M50,24.38c-3.1-2.77-12.77-8.93-14-10.19C35,14.19,43.06,22.31,50,24.38Z"/></g></g><g id="_Group_11" data-name="&lt;Group&gt;"><g id="_Group_12" data-name="&lt;Group&gt;"><path id="_Path_10" data-name="&lt;Path&gt;" class="cls-1" d="M149.87,17.6c-.27,8.69,13.31,9.6,13.31.9s-20.11-16-35-12.46c-14.6,3.49-7,18.38-1.64,22.17,6.75,4.74,17.06.61,10.95-10.22-3.58-6.35-12.23,0-8.76,2.92,4.38,3.65,8.39,8.67,3.42,8.35-4.22-.27-8.8-5.75-10-12-1.16-6.08,3.65-8.79,10.77-9.79s22.9,1.61,27.64,7.27-1.69,9.58-3.33,8.58-.78-7.36-3.79-8.3C150.78,14.14,149.92,16.12,149.87,17.6Z"/></g><g id="_Group_13" data-name="&lt;Group&gt;"><path id="_Path_11" data-name="&lt;Path&gt;" class="cls-1" d="M128.57,10.57c-.36-1,6.09-2.23,10.58-1.92,5.78.41,11.77,2.26,12.13,2.83.64,1-5.22-.71-12.32-1.28C133.68,9.77,129,11.72,128.57,10.57Z"/></g><g id="_Group_14" data-name="&lt;Group&gt;"><path id="_Path_12" data-name="&lt;Path&gt;" class="cls-1" d="M170,7.38c-8.72.91-6.33,16.18,1.95,16.18s21.13-17.63,25.33-13.38-1,6.13-1.7,6.45,0,1.71,1.23,1,4.09-3.11,3.13-6-3.81-5.11-8.83-2c-4.59,2.83-13.49,10.53-15.66,11.6-1.81.9-5.55,1.58-7.24-1.47S166.33,13,167.58,12c3-2.42,3.67,1.42,4.23,4,1.19,5.43,6.61,2.14,6.25-1.92C177.84,11.61,175.13,6.85,170,7.38Z"/></g><g id="_Group_15" data-name="&lt;Group&gt;"><path id="_Path_13" data-name="&lt;Path&gt;" class="cls-1" d="M163.86,21.95c.48,6.55-5.25,11.56-7.82,10.58-2.16-.82-2.11-3.48,1.1-4.73C162.68,25.65,163.37,23.88,163.86,21.95Z"/></g><g id="_Group_16" data-name="&lt;Group&gt;"><path id="_Path_14" data-name="&lt;Path&gt;" class="cls-1" d="M165.26,22.35c.6,8.42,11.59,13,15.81,11,3.55-1.68,2.88-5-2.94-5.64C168.1,26.68,166.52,24.65,165.26,22.35Z"/></g><g id="_Group_17" data-name="&lt;Group&gt;"><path id="_Path_15" data-name="&lt;Path&gt;" class="cls-1" d="M176.28,24.38c3.1-2.77,12.77-8.93,14-10.19C191.34,14.19,183.25,22.31,176.28,24.38Z"/></g></g></g></g></svg>