<svg xmlns="http://www.w3.org/2000/svg" viewBox="0 0 225.62 53.66"><defs><style>.cls-1{fill:#ffdc73;}</style></defs><title>border-top_2</title><g id="Layer_2" data-name="Layer 2"><g id="OBJECTS"><g id="_Group_" data-name="&lt;Group&gt;"><path id="_Path_" data-name="&lt;Path&gt;" class="cls-1" d="M224.88,53.66H.73a.73.73,0,0,1,0-1.47H224.88a.73.73,0,1,1,0,1.47Z"/></g><g id="_Group_2" data-name="&lt;Group&gt;"><path id="_Path_2" data-name="&lt;Path&gt;" class="cls-1" d="M112.81,35.09s-8-12.52-8-17.55,8-17.55,8-17.55,8,12.52,8,17.55S112.81,35.09,112.81,35.09Z"/></g><g id="_Group_3" data-name="&lt;Group&gt;"><circle id="_Path_3" data-name="&lt;Path&gt;" class="cls-1" cx="112.81" cy="44.25" r="3.19"/></g><g id="_Group_4" data-name="&lt;Group&gt;"><g id="_Group_5" data-name="&lt;Group&gt;"><path id="_Path_4" data-name="&lt;Path&gt;" class="cls-1" d="M149.87,36.12c-.27-8.69,13.31-9.6,13.31-.9s-20.11,16-35,12.46c-14.6-3.49-7-18.38-1.64-22.17,6.75-4.74,17.06-.61,10.95,10.22-3.58,6.35-12.23,0-8.76-2.92,4.38-3.65,8.39-8.67,3.42-8.35-4.22.27-8.8,5.75-10,12-1.16,6.08,3.65,8.79,10.77,9.79s22.9-1.61,27.64-7.27-1.69-9.58-3.33-8.58-.78,7.36-3.79,8.3C150.78,39.58,149.92,37.6,149.87,36.12Z"/></g><g id="_Group_6" data-name="&lt;Group&gt;"><path id="_Path_5" data-name="&lt;Path&gt;" class="cls-1" d="M128.57,43.15c-.36,1,6.09,2.23,10.58,1.92,5.78-.41,11.77-2.26,12.13-2.83.64-1-5.22.71-12.32,1.28C133.68,43.95,129,42,128.57,43.15Z"/></g><g id="_Group_7" data-name="&lt;Group&gt;"><path id="_Path_6" data-name="&lt;Path&gt;" class="cls-1" d="M170,46.34c-8.72-.91-6.33-16.18,1.95-16.18s21.13,17.63,25.33,13.38-1-6.13-1.7-6.45,0-1.71,1.23-1,4.09,3.11,3.13,6-3.81,5.11-8.83,2c-4.59-2.83-13.49-10.53-15.66-11.6-1.81-.9-5.55-1.58-7.24,1.47s-1.92,6.74-.67,7.76c3,2.42,3.67-1.42,4.23-4,1.19-5.43,6.61-2.14,6.25,1.92C177.84,42.11,175.13,46.87,170,46.34Z"/></g><g id="_Group_8" data-name="&lt;Group&gt;"><path id="_Path_7" data-name="&lt;Path&gt;" class="cls-1" d="M163.86,31.77c.48-6.55-5.25-11.56-7.82-10.58-2.16.82-2.11,3.48,1.1,4.73C162.68,28.07,163.37,29.84,163.86,31.77Z"/></g><g id="_Group_9" data-name="&lt;Group&gt;"><path id="_Path_8" data-name="&lt;Path&gt;" class="cls-1" d="M165.26,31.36c.6-8.42,11.59-13,15.81-11,3.55,1.68,2.88,5-2.94,5.64C168.1,27,166.52,29.07,165.26,31.36Z"/></g><g id="_Group_10" data-name="&lt;Group&gt;"><path id="_Path_9" data-name="&lt;Path&gt;" class="cls-1" d="M176.28,29.34c3.1,2.77,12.77,8.93,14,10.19C191.34,39.53,183.25,31.41,176.28,29.34Z"/></g></g><g id="_Group_11" data-name="&lt;Group&gt;"><g id="_Group_12" data-name="&lt;Group&gt;"><path id="_Path_10" data-name="&lt;Path&gt;" class="cls-1" d="M76.44,36.12c.27-8.69-13.31-9.6-13.31-.9s20.11,16,35,12.46c14.6-3.49,7-18.38,1.64-22.17C93,20.76,82.68,24.9,88.8,35.73c3.58,6.35,12.23,0,8.76-2.92-4.38-3.65-8.39-8.67-3.42-8.35,4.22.27,8.8,5.75,10,12,1.16,6.08-3.65,8.79-10.77,9.79S70.46,44.67,65.72,39,67.4,29.43,69,30.43s.78,7.36,3.79,8.3C75.53,39.58,76.39,37.6,76.44,36.12Z"/></g><g id="_Group_13" data-name="&lt;Group&gt;"><path id="_Path_11" data-name="&lt;Path&gt;" class="cls-1" d="M97.74,43.15c.36,1-6.09,2.23-10.58,1.92-5.78-.41-11.77-2.26-12.13-2.83-.64-1,5.22.71,12.32,1.28C92.63,43.95,97.34,42,97.74,43.15Z"/></g><g id="_Group_14" data-name="&lt;Group&gt;"><path id="_Path_12" data-name="&lt;Path&gt;" class="cls-1" d="M56.26,46.34c8.72-.91,6.33-16.18-1.95-16.18S33.18,47.79,29,43.54s1-6.13,1.7-6.45,0-1.71-1.23-1-4.09,3.11-3.13,6,3.81,5.11,8.83,2c4.59-2.83,13.49-10.53,15.66-11.6,1.81-.9,5.55-1.58,7.24,1.47s1.92,6.74.67,7.76c-3,2.42-3.67-1.42-4.23-4-1.19-5.43-6.61-2.14-6.25,1.92C48.47,42.11,51.18,46.87,56.26,46.34Z"/></g><g id="_Group_15" data-name="&lt;Group&gt;"><path id="_Path_13" data-name="&lt;Path&gt;" class="cls-1" d="M62.45,31.77C62,25.22,67.7,20.21,70.26,21.19c2.16.82,2.11,3.48-1.1,4.73C63.63,28.07,62.93,29.84,62.45,31.77Z"/></g><g id="_Group_16" data-name="&lt;Group&gt;"><path id="_Path_14" data-name="&lt;Path&gt;" class="cls-1" d="M61,31.36c-.6-8.42-11.59-13-15.81-11-3.55,1.68-2.88,5,2.94,5.64C58.2,27,59.78,29.07,61,31.36Z"/></g><g id="_Group_17" data-name="&lt;Group&gt;"><path id="_Path_15" data-name="&lt;Path&gt;" class="cls-1" d="M50,29.34c-3.1,2.77-12.77,8.93-14,10.19C35,39.53,43.06,31.41,50,29.34Z"/></g></g><g id="_Group_18" data-name="&lt;Group&gt;"><path id="_Path_16" data-name="&lt;Path&gt;" class="cls-1" d="M165.26,31.36c.6-8.42,11.59-13,15.81-11,3.55,1.68,2.88,5-2.94,5.64C168.1,27,166.52,29.07,165.26,31.36Z"/></g></g></g></svg>